<svg xmlns="http://www.w3.org/2000/svg" xmlns:xlink="http://www.w3.org/1999/xlink" width="210" height="47" viewBox="0 0 210 47">
  <defs>
    <linearGradient id="b" x1="89.83%" x2="17.372%" y1="22.63%" y2="79.698%">
      <stop offset="0%" stop-color="#00A1FF"/>
      <stop offset="52.594%" stop-color="#007CFF"/>
      <stop offset="100%" stop-color="#1360FF"/>
    </linearGradient>
    <path id="a" d="M5.92670467,7.99869414 L12.4057758,2.42919063 C16.1736517,-0.809730209 21.7188207,-0.809730209 25.4866967,2.42919063 L31.9657678,7.99869414 C33.6650425,9.45941537 34.834529,11.4475954 35.2904726,13.6508434 L37.6801217,25.1983005 C38.3706515,28.5351351 37.3535203,31.9984612 34.9720402,34.419303 L26.10332,43.4346078 C22.1852462,47.4174405 15.8046843,47.4457636 11.851936,43.4978692 C11.8309161,43.4768751 11.809988,43.4557877 11.7891524,43.4346078 L2.92043223,34.419303 C0.538952114,31.9984612 -0.478179046,28.5351351 0.212350796,25.1983005 L2.60199987,13.6508434 C3.0579435,11.4475954 4.22742991,9.45941537 5.92670467,7.99869414 Z"/>
  </defs>
  <g fill="none" fill-rule="evenodd">
    <g transform="translate(0 .052)">
      <mask id="c" fill="white">
        <use xlink:href="#a"/>
      </mask>
      <use fill="url(#b)" xlink:href="#a"/>
      <path fill="#FFFFFF" d="M27.5027624,29.6010936 L27.5027624,29.6010936 L27.5027624,31.0967695 C27.5027624,35.8868725 23.6489483,39.7700181 18.8950276,39.7700181 C14.141107,39.7700181 10.2872928,35.8868725 10.2872928,31.0967695 L10.2872928,29.6010936 C7.23667987,29.3841581 4.82872928,26.8218112 4.82872928,23.6927768 C4.82872928,20.4214869 7.46060235,17.7695826 10.7071823,17.7695826 L27.0828729,17.7695826 C30.3294529,17.7695826 32.961326,20.4214869 32.961326,23.6927768 C32.961326,26.8218112 30.5533754,29.3841581 27.5027624,29.6010936 Z M11.0220994,22.2119782 C10.1524798,22.2119782 9.44751381,22.9223097 9.44751381,23.7985481 C9.44751381,24.6747864 10.1524798,25.385118 11.0220994,25.385118 L26.9779006,25.385118 C27.8475202,25.385118 28.5524862,24.6747864 28.5524862,23.7985481 C28.5524862,22.9223097 27.8475202,22.2119782 26.9779006,22.2119782 L11.0220994,22.2119782 Z M16.6906077,28.7698004 C15.8209881,28.7698004 15.1160221,29.4801319 15.1160221,30.3563702 C15.1160221,31.2326086 15.8209881,31.9429401 16.6906077,31.9429401 L21.3093923,31.9429401 C22.1790119,31.9429401 22.8839779,31.2326086 22.8839779,30.3563702 C22.8839779,29.4801319 22.1790119,28.7698004 21.3093923,28.7698004 L16.6906077,28.7698004 Z" mask="url(#c)"/>
    </g>
    <path fill="#FFFFFF" d="M90.1221262,5.34367187 L88.9828835,5.34367187 C88.6687427,5.34367187 88.2419126,5.48273437 88.0018689,6.13273437 L83.8439417,15.3053906 L79.7439029,6.14523437 C79.4992282,5.48273437 79.0723981,5.34367187 78.7574854,5.34367187 L77.6182427,5.34367187 C77.3812864,5.34367187 77.1767476,5.42882812 77.0100291,5.59757812 C76.8433107,5.76632812 76.7591796,5.97414062 76.7591796,6.21398437 C76.7591796,6.31007812 76.7715291,6.39679687 76.8031748,6.49132812 L82.2686068,18.7561719 L79.7987039,24.1358594 C79.7740049,24.2124219 79.7608835,24.2991406 79.7608835,24.3936719 C79.7608835,24.6342969 79.8457864,24.8421094 80.011733,25.0100781 C80.1784515,25.1788281 80.3837621,25.2647656 80.6207184,25.2647656 L81.7599612,25.2647656 C82.0741019,25.2647656 82.500932,25.1257031 82.7409757,24.4757031 L90.9441408,6.47335937 C90.9696117,6.39679687 90.9819612,6.31242187 90.9819612,6.21398437 C90.9819612,5.97414062 90.8978301,5.76632812 90.7311117,5.59757812 C90.5643932,5.42882812 90.3598544,5.34367187 90.1221262,5.34367187 L90.1221262,5.34367187 Z M66.2312184,11.3342969 C66.2721262,10.3225781 66.6372087,9.49054687 67.3179757,8.86085937 C68.0280728,8.20460937 68.9056602,7.87179687 69.925267,7.87179687 C71.0537039,7.87179687 71.967568,8.19914063 72.6406165,8.84445313 C73.2866505,9.46554687 73.6254903,10.3030469 73.6486456,11.3342969 L66.2312184,11.3342969 Z M69.925267,5.06242187 C68.6910874,5.06242187 67.5881214,5.34601562 66.645699,5.90460937 C65.7048204,6.46320312 64.9422379,7.23351562 64.3818786,8.19601562 C63.823835,9.15382812 63.4826796,10.2405469 63.3692184,11.4319531 C63.3321699,11.9952344 63.3128738,12.4342969 63.3128738,12.7389844 C63.3128738,13.0436719 63.3321699,13.4827344 63.3692184,14.0507031 C63.4826796,15.2921094 63.8230631,16.4257031 64.380335,17.4202344 C64.9406942,18.4202344 65.7079078,19.2155469 66.6595922,19.7835156 C67.6105049,20.3514844 68.7096117,20.6405469 69.925267,20.6405469 C71.167165,20.6405469 72.2531505,20.4507031 73.1523495,20.0780469 C74.0561796,19.7014844 74.7616456,19.2303906 75.2509951,18.6772656 C75.7465194,18.1163281 76.0375049,17.5569531 76.1185485,17.0030469 C76.1424757,16.7405469 76.0560291,16.5030469 75.8684709,16.3139844 C75.6832282,16.1257031 75.4509029,16.0311719 75.1761262,16.0311719 L74.342534,16.0311719 C74.1094369,16.0311719 73.9241942,16.0647656 73.7752282,16.1335156 C73.631665,16.2007031 73.4819272,16.3147656 73.3113495,16.4882031 C72.9238835,16.9163281 72.4808447,17.2522656 71.9953544,17.4850781 C71.5144951,17.7139844 70.8175194,17.8311719 69.925267,17.8311719 C68.8524029,17.8311719 67.9670971,17.4944531 67.2948204,16.8327344 C66.6271748,16.1741406 66.268267,15.2483594 66.2281311,14.0874219 L75.5929223,14.0874219 C75.8491748,14.0874219 76.0730097,13.9921094 76.2574806,13.8053906 C76.4427233,13.6178906 76.5361165,13.3921094 76.5361165,13.1327344 L76.5361165,12.3733594 C76.5361165,10.1397656 75.9394806,8.34523437 74.7631893,7.03820312 C73.5814951,5.72726562 71.9536748,5.06242187 69.925267,5.06242187 L69.925267,5.06242187 Z M104.984767,17.4374219 L95.7589078,17.4374219 L95.7589078,1.23585937 C95.7589078,0.977265625 95.6655146,0.751484375 95.4795,0.563203125 C95.2942573,0.376484375 95.0704223,0.281171875 94.8149417,0.281171875 L93.675699,0.281171875 C93.4202184,0.281171875 93.1963835,0.376484375 93.0111408,0.563203125 C92.8258981,0.751484375 92.7325049,0.977265625 92.7325049,1.23585937 L92.7325049,19.4046094 C92.7325049,19.6632031 92.8258981,19.8889844 93.0111408,20.0772656 C93.1956117,20.2647656 93.4194466,20.3592969 93.675699,20.3592969 L104.984767,20.3592969 C105.241019,20.3592969 105.464854,20.2647656 105.649325,20.0772656 C105.834568,19.8889844 105.928733,19.6632031 105.928733,19.4046094 L105.928733,18.3921094 C105.928733,18.1342969 105.834568,17.9085156 105.649325,17.7194531 C105.464854,17.5319531 105.241019,17.4374219 104.984767,17.4374219 L104.984767,17.4374219 Z M158.160235,8.10304687 C157.636153,7.12804687 156.895182,6.36867187 155.958163,5.84601562 C155.025774,5.32648437 153.948279,5.06242187 152.753464,5.06242187 C151.689862,5.06242187 150.776769,5.25382812 150.039658,5.63195312 C149.486245,5.91554687 149.017735,6.25539062 148.639531,6.64601562 L148.639531,6.29835937 C148.639531,6.03976562 148.546138,5.81398437 148.360124,5.62570312 C148.174881,5.43898437 147.951046,5.34367187 147.695565,5.34367187 L146.667468,5.34367187 C146.41276,5.34367187 146.188925,5.43898437 146.003682,5.62570312 C145.818439,5.81320312 145.724274,6.03898437 145.724274,6.29835937 L145.724274,19.4046094 C145.724274,19.6639844 145.817667,19.8905469 146.003682,20.0772656 C146.188153,20.2647656 146.411988,20.3592969 146.667468,20.3592969 L147.695565,20.3592969 C147.951818,20.3592969 148.175653,20.2647656 148.360124,20.0772656 C148.546138,19.8889844 148.639531,19.6632031 148.639531,19.4046094 L148.639531,11.9796094 C148.639531,10.6319531 148.971425,9.59835937 149.627493,8.90851562 C150.281245,8.22101562 151.192794,7.87179687 152.336667,7.87179687 C153.498294,7.87179687 154.413701,8.22023437 155.058192,8.90773437 C155.705769,9.59835937 156.033803,10.6319531 156.033803,11.9796094 L156.033803,19.4046094 C156.033803,19.6632031 156.127197,19.8897656 156.311667,20.0772656 C156.496138,20.2647656 156.719973,20.3592969 156.976226,20.3592969 L158.004323,20.3592969 C158.260575,20.3592969 158.485182,20.2639844 158.668881,20.0772656 C158.854124,19.8905469 158.947517,19.6639844 158.947517,19.4046094 L158.947517,11.5577344 C158.947517,10.2374219 158.682002,9.07492187 158.160235,8.10304687 L158.160235,8.10304687 Z M143.071442,5.34367187 L141.626549,5.34367187 C140.765942,5.34367187 140.054301,5.48273437 139.510922,5.75773437 C139.121141,5.95539062 138.767636,6.23585937 138.456583,6.59445312 L138.456583,6.29835937 C138.456583,6.03898437 138.362417,5.81320312 138.177947,5.62570312 C137.992704,5.43898437 137.769641,5.34367187 137.513388,5.34367187 L136.485291,5.34367187 C136.229039,5.34367187 136.005976,5.43898437 135.821505,5.62570312 C135.637034,5.81320312 135.542869,6.03898437 135.542869,6.29835937 L135.542869,19.4046094 C135.542869,19.6639844 135.636262,19.8905469 135.821505,20.0772656 C136.005204,20.2639844 136.229039,20.3592969 136.485291,20.3592969 L137.513388,20.3592969 C137.769641,20.3592969 137.993476,20.2639844 138.177947,20.0772656 C138.363189,19.8905469 138.456583,19.6639844 138.456583,19.4046094 L138.456583,11.1921094 C138.456583,10.2007031 138.713607,9.43820312 139.219937,8.92570312 C139.727039,8.41320312 140.479587,8.15304687 141.45983,8.15304687 L143.071442,8.15304687 C143.32615,8.15304687 143.549985,8.05851562 143.735228,7.87101562 C143.919699,7.68429687 144.013864,7.45773437 144.013864,7.19835937 L144.013864,6.29835937 C144.013864,6.03898437 143.919699,5.81320312 143.735228,5.62570312 C143.549985,5.43898437 143.32615,5.34367187 143.071442,5.34367187 L143.071442,5.34367187 Z M129.960117,13.8639844 C129.960117,15.0382031 129.561073,16.0022656 128.773019,16.7296094 C127.979563,17.4600781 126.929854,17.8311719 125.65168,17.8311719 C124.833524,17.8311719 124.222223,17.6577344 123.833985,17.3171094 C123.448835,16.9772656 123.261277,16.6116406 123.261277,16.1983594 C123.261277,15.6280469 123.558437,15.1616406 124.17051,14.7749219 C124.811141,14.3694531 125.73118,14.0710156 126.905155,13.8882031 L129.960117,13.3897656 L129.960117,13.8639844 Z M126.902068,5.06242187 C125.954243,5.06242187 125.049641,5.24757812 124.214505,5.61320312 C123.376282,5.97882812 122.694743,6.45382812 122.188413,7.02570312 C121.671277,7.60773437 121.378748,8.20851562 121.319316,8.81242187 C121.29616,9.07648437 121.389553,9.31632812 121.588689,9.50617187 C121.782422,9.69054687 122.009345,9.78429687 122.26251,9.78429687 L123.096102,9.78429687 C123.34618,9.78429687 123.543772,9.75148437 123.699684,9.68429687 C123.861,9.61398437 124.008422,9.48898437 124.139636,9.31164062 C124.493913,8.82804687 124.872117,8.46164062 125.264985,8.22414062 C125.649364,7.99054687 126.200461,7.87179687 126.902068,7.87179687 C127.81516,7.87179687 128.564621,8.10773437 129.128068,8.57335937 C129.688427,9.03507812 129.960117,9.68039062 129.960117,10.5452344 L129.960117,10.7452344 L126.20432,11.3647656 C124.458408,11.6499219 123.037442,12.2069531 121.977699,13.0194531 C120.894801,13.8514844 120.346019,15.0155469 120.346019,16.4796094 C120.346019,17.2655469 120.558277,17.9835156 120.977388,18.6139844 C121.393413,19.2413281 121.99468,19.7421094 122.764209,20.1014844 C123.526791,20.4592969 124.40515,20.6405469 125.373816,20.6405469 C126.357146,20.6405469 127.353597,20.4366406 128.336155,20.0350781 C129.047796,19.7444531 129.591175,19.3733594 129.960117,18.9257031 L129.960117,19.4046094 C129.960117,19.6639844 130.05351,19.8905469 130.239524,20.0772656 C130.423995,20.2647656 130.64783,20.3592969 130.903311,20.3592969 L131.931408,20.3592969 C132.18766,20.3592969 132.411495,20.2647656 132.596738,20.0772656 C132.781981,19.8889844 132.875374,19.6632031 132.875374,19.4046094 L132.875374,10.8264844 C132.875374,9.01476562 132.315786,7.58507812 131.213592,6.57570312 C130.116801,5.57179687 128.666505,5.06242187 126.902068,5.06242187 L126.902068,5.06242187 Z M109.095612,11.3342969 C109.137291,10.3225781 109.502374,9.49054687 110.183141,8.86085937 C110.893238,8.20460937 111.770053,7.87179687 112.78966,7.87179687 C113.918869,7.87179687 114.832733,8.19914063 115.505782,8.84445313 C116.152587,9.46554687 116.490655,10.3030469 116.513039,11.3342969 L109.095612,11.3342969 Z M112.78966,5.06242187 C111.557024,5.06242187 110.453286,5.34601562 109.510864,5.90460937 C108.569214,6.46320312 107.808175,7.23351562 107.247044,8.19601562 C106.689,9.15304687 106.347845,10.2405469 106.234383,11.4319531 C106.197335,11.9928906 106.178811,12.4327344 106.178811,12.7389844 C106.178811,13.0460156 106.197335,13.4850781 106.234383,14.0507031 C106.347845,15.2921094 106.688228,16.4257031 107.2455,17.4202344 C107.805859,18.4202344 108.572301,19.2155469 109.524757,19.7835156 C110.47567,20.3514844 111.574005,20.6405469 112.78966,20.6405469 C114.033102,20.6405469 115.118316,20.4507031 116.016743,20.0780469 C116.921345,19.7014844 117.627583,19.2303906 118.11616,18.6772656 C118.610913,18.1171094 118.90267,17.5577344 118.984485,17.0030469 C119.007641,16.7405469 118.921194,16.5030469 118.733636,16.3139844 C118.549165,16.1257031 118.315296,16.0311719 118.041291,16.0311719 L117.207699,16.0311719 C116.974602,16.0311719 116.789359,16.0647656 116.639621,16.1335156 C116.498374,16.1999219 116.344005,16.3171094 116.176515,16.4882031 C115.788277,16.9171094 115.34601,17.2522656 114.861291,17.4842969 C114.37966,17.7139844 113.681913,17.8311719 112.78966,17.8311719 C111.717568,17.8311719 110.832262,17.4944531 110.159985,16.8327344 C109.49234,16.1733594 109.133432,15.2475781 109.093296,14.0874219 L118.458087,14.0874219 C118.71434,14.0874219 118.938175,13.9928906 119.122646,13.8053906 C119.307888,13.6178906 119.402053,13.3913281 119.402053,13.1327344 L119.402053,12.3733594 C119.402053,10.1397656 118.804646,8.34523437 117.628354,7.03820312 C116.44666,5.72726562 114.81884,5.06242187 112.78966,5.06242187 L112.78966,5.06242187 Z M30.7294515,14.0139844 C30.6229369,15.1647656 30.2431893,16.1007031 29.6002427,16.7960156 C28.9650146,17.4827344 28.0449757,17.8311719 26.8648252,17.8311719 C25.6854466,17.8311719 24.7646359,17.4827344 24.1301796,16.7960156 C23.4864612,16.1007031 23.1067136,15.1647656 23.000199,14.0147656 C22.9824466,13.8171094 22.9731845,13.4350781 22.9731845,12.8796094 C22.9731845,12.3053906 22.9824466,11.9030469 23.000199,11.6889844 C23.1067136,10.5382031 23.4864612,9.60304687 24.1301796,8.90695312 C24.7654078,8.22023437 25.6854466,7.87179687 26.8648252,7.87179687 C28.0442039,7.87179687 28.9650146,8.22023437 29.6002427,8.90695312 C30.2431893,9.60226562 30.6229369,10.5382031 30.7294515,11.6866406 C30.7657282,12.1288281 30.7842524,12.5303906 30.7842524,12.8796094 C30.7842524,13.2288281 30.7657282,13.6108594 30.7294515,14.0139844 L30.7294515,14.0139844 Z M31.6402282,6.81945312 C30.4600777,5.65382812 28.8530971,5.06242187 26.8648252,5.06242187 C24.8773252,5.06242187 23.2711165,5.65382812 22.0894223,6.81945312 C20.9123592,7.98273437 20.2385388,9.56242187 20.0872573,11.5124219 C20.0679612,11.7272656 20.058699,12.1749219 20.058699,12.8796094 C20.058699,13.5467969 20.0679612,13.9749219 20.0872573,14.1913281 C20.257835,16.1421094 20.9362864,17.7202344 22.1033155,18.8827344 C23.2742039,20.0491406 24.8765534,20.6405469 26.8648252,20.6405469 C28.8538689,20.6405469 30.4562184,20.0491406 31.626335,18.8827344 C32.7949078,17.7194531 33.4725874,16.1413281 33.6423932,14.1913281 C33.6802136,13.7757031 33.6987379,13.3350781 33.6987379,12.8796094 C33.6987379,12.3866406 33.6802136,11.9264844 33.6423932,11.5139844 C33.4911117,9.56164062 32.8172913,7.98195312 31.6402282,6.81945312 L31.6402282,6.81945312 Z M16.7258738,0.281171875 L15.6699903,0.281171875 C15.0748981,0.281171875 14.6056165,0.620234375 14.2760388,1.28664062 L8.83453398,11.9483594 L3.39457282,1.28898437 C3.0642233,0.620234375 2.59494175,0.281171875 1.99907767,0.281171875 L0.943194175,0.281171875 C0.687713592,0.281171875 0.463878641,0.376484375 0.279407767,0.563203125 C0.0941650485,0.750703125 0,0.977265625 0,1.23585937 L0,19.4046094 C0,19.6632031 0.0941650485,19.8897656 0.278635922,20.0772656 C0.463878641,20.2639844 0.686941748,20.3592969 0.943194175,20.3592969 L2.08320874,20.3592969 C2.33868932,20.3592969 2.56252427,20.2639844 2.74699515,20.0772656 C2.93223786,19.8905469 3.02563107,19.6639844 3.02563107,19.4046094 L3.02563107,6.87414062 L6.99522816,14.6257031 C7.15422816,14.9483594 7.33406796,15.1967969 7.5301165,15.3639844 C7.74160194,15.5436719 8.00248544,15.6342969 8.30659223,15.6342969 L9.36247573,15.6342969 C9.66658252,15.6342969 9.92823786,15.5436719 10.1397233,15.3639844 C10.335,15.1967969 10.5148398,14.9483594 10.673068,14.6288281 L14.6434369,6.87492187 L14.6434369,19.4046094 C14.6434369,19.6632031 14.7376019,19.8897656 14.9220728,20.0772656 C15.1073155,20.2647656 15.3311505,20.3592969 15.5866311,20.3592969 L16.7258738,20.3592969 C16.9821262,20.3592969 17.2059612,20.2639844 17.390432,20.0772656 C17.5756748,19.8897656 17.669068,19.6632031 17.669068,19.4046094 L17.669068,1.23585937 C17.669068,0.977265625 17.5756748,0.750703125 17.390432,0.563203125 C17.2051893,0.376484375 16.9821262,0.281171875 16.7258738,0.281171875 L16.7258738,0.281171875 Z M56.2219369,12.0764844 L62.7417087,6.92804687 C62.9917864,6.72101562 63.1183689,6.48117187 63.1183689,6.21398437 C63.1183689,5.97414062 63.0342379,5.76632812 62.8675194,5.59757812 C62.700801,5.42882812 62.4962621,5.34367187 62.258534,5.34367187 L60.8692136,5.34367187 C60.6152767,5.34367187 60.3960728,5.39445312 60.2193204,5.49523437 C60.0657233,5.58273437 59.8812524,5.70539062 59.6674515,5.86242187 L54.5601553,9.86554687 L54.5601553,0.954609375 C54.5601553,0.696015625 54.4667621,0.469453125 54.2815194,0.281953125 C54.0970485,0.095234375 53.8732136,-7.8125e-05 53.6169612,-7.8125e-05 L52.5888641,-7.8125e-05 C52.3333835,-7.8125e-05 52.1095485,0.095234375 51.9250777,0.281953125 C51.739835,0.469453125 51.6456699,0.695234375 51.6456699,0.954609375 L51.6456699,19.4046094 C51.6456699,19.6639844 51.739835,19.8905469 51.9243058,20.0772656 C52.1095485,20.2639844 52.3333835,20.3592969 52.5888641,20.3592969 L53.6169612,20.3592969 C53.8732136,20.3592969 54.0970485,20.2639844 54.2815194,20.0772656 C54.4667621,19.8897656 54.5601553,19.6632031 54.5601553,19.4046094 L54.5601553,14.4233594 L60.355165,19.8342969 C60.7596117,20.1835156 61.1856699,20.3592969 61.6194466,20.3592969 L62.9254078,20.3592969 C63.1631359,20.3592969 63.3676748,20.2741406 63.5343932,20.1053906 C63.7011117,19.9366406 63.7852427,19.7296094 63.7852427,19.4889844 C63.7852427,19.2671094 63.6725534,19.0405469 63.4448592,18.8116406 L56.2219369,12.0764844 Z M46.0166068,5.84601562 C45.0842184,5.32648437 44.0059515,5.06242187 42.8111359,5.06242187 C41.7483058,5.06242187 40.8352136,5.25382812 40.0981019,5.63195312 C39.5454612,5.91554687 39.0761796,6.25539062 38.6979757,6.64601562 L38.6979757,6.29835937 C38.6979757,6.03976562 38.6038107,5.81320312 38.418568,5.62570312 C38.2333252,5.43898437 38.0094903,5.34367187 37.7540097,5.34367187 L36.7259126,5.34367187 C36.470432,5.34367187 36.2465971,5.43898437 36.0613544,5.62570312 C35.8768835,5.81320312 35.7827184,6.03976562 35.7827184,6.29835937 L35.7827184,19.4046094 C35.7827184,19.6632031 35.8768835,19.8897656 36.0613544,20.0772656 C36.2465971,20.2639844 36.4696602,20.3592969 36.7259126,20.3592969 L37.7540097,20.3592969 C38.0102621,20.3592969 38.2333252,20.2647656 38.418568,20.0772656 C38.6038107,19.8897656 38.6979757,19.6632031 38.6979757,19.4046094 L38.6979757,11.9796094 C38.6979757,10.6319531 39.0298689,9.59914062 39.685165,8.90851562 C40.3389175,8.22101562 41.2512379,7.87179687 42.3943398,7.87179687 C43.555966,7.87179687 44.4721456,8.22023437 45.1166359,8.90773437 C45.7634417,9.59835937 46.0914757,10.6319531 46.0914757,11.9796094 L46.0914757,19.4046094 C46.0914757,19.6632031 46.1856408,19.8897656 46.3701117,20.0772656 C46.5553544,20.2639844 46.7784175,20.3592969 47.0346699,20.3592969 L48.062767,20.3592969 C48.3190194,20.3592969 48.5428544,20.2639844 48.7280971,20.0772656 C48.912568,19.8897656 49.0059612,19.6632031 49.0059612,19.4046094 L49.0059612,11.5577344 C49.0059612,10.2374219 48.7412184,9.07492187 48.2186796,8.10304687 C47.6938252,7.12804687 46.9528544,6.36867187 46.0166068,5.84601562 L46.0166068,5.84601562 Z" transform="translate(50.205 13.886)"/>
  </g>
</svg>
