<svg xmlns="http://www.w3.org/2000/svg" xmlns:xlink="http://www.w3.org/1999/xlink" width="185" height="50" viewBox="0 0 185 50">
    <defs>
        <rect id="a" width="50" height="50" rx="7"/>
    </defs>
    <g fill="none" fill-rule="evenodd">
        <mask id="b" fill="#fff">
            <use xlink:href="#a"/>
        </mask>
        <use fill="#B3B9C0" xlink:href="#a"/>
        <path fill="#C4CBD2" d="M25-2h27v27H25z" mask="url(#b)"/>
        <path fill="#E9EBED" d="M25 25h27v27H25z" mask="url(#b)"/>
        <path fill="#B3B9C0" fill-rule="nonzero" d="M89.536 32.527c-.763 1.031-1.754 1.868-2.972 2.51-1.219.642-2.682.963-4.391.963-1.473 0-2.832-.249-4.078-.746a9.499 9.499 0 0 1-3.218-2.09 9.61 9.61 0 0 1-2.113-3.2c-.51-1.24-.764-2.6-.764-4.084 0-1.501.26-2.872.777-4.11.518-1.24 1.237-2.298 2.155-3.175.918-.877 2.004-1.56 3.259-2.048 1.254-.489 2.618-.733 4.09-.733.655 0 1.319.063 1.992.19a9.948 9.948 0 0 1 1.936.57 8.024 8.024 0 0 1 1.691.936c.51.37.945.8 1.31 1.288l-2.128 1.628c-.473-.65-1.141-1.189-2.005-1.614a6.244 6.244 0 0 0-2.795-.638c-1.127 0-2.141.204-3.041.61-.9.408-1.668.964-2.305 1.67a7.539 7.539 0 0 0-1.472 2.455 8.475 8.475 0 0 0-.519 2.97c0 1.086.169 2.099.505 3.04.336.94.818 1.759 1.445 2.455a6.67 6.67 0 0 0 2.291 1.642c.9.397 1.905.596 3.014.596 1.09 0 2.082-.217 2.973-.65a5.716 5.716 0 0 0 2.209-1.9l2.154 1.465zm5.237 2.985h-2.564V15h2.564v20.512zm13.936-7.57a4.828 4.828 0 0 0-.259-1.425 3.267 3.267 0 0 0-.682-1.153 3.205 3.205 0 0 0-1.118-.773c-.445-.19-.968-.285-1.568-.285-.546 0-1.06.095-1.541.285-.482.19-.9.448-1.255.773-.354.326-.645.71-.872 1.153-.228.444-.36.918-.396 1.425h7.691zm2.591 1.03v.435c0 .145-.01.29-.027.434h-10.255a3.84 3.84 0 0 0 .368 1.533c.228.48.532.895.914 1.248a4.275 4.275 0 0 0 2.918 1.126c.873 0 1.627-.19 2.264-.57.636-.38 1.136-.84 1.5-1.383l1.8 1.438c-.691.904-1.505 1.569-2.441 1.994-.936.425-1.977.637-3.123.637-.982 0-1.89-.162-2.727-.488a6.305 6.305 0 0 1-2.155-1.37 6.349 6.349 0 0 1-1.418-2.13c-.345-.832-.518-1.755-.518-2.767 0-.995.168-1.913.505-2.754a6.3 6.3 0 0 1 1.404-2.157 6.432 6.432 0 0 1 2.127-1.398 6.92 6.92 0 0 1 2.646-.502c.945 0 1.804.154 2.577.462.773.307 1.427.75 1.964 1.33.536.578.95 1.279 1.24 2.102.292.823.437 1.75.437 2.78zm11.455-1.79c0-.958-.291-1.668-.873-2.13-.582-.46-1.355-.692-2.318-.692-.728 0-1.414.14-2.06.421-.645.28-1.186.638-1.622 1.072l-1.364-1.628c.637-.597 1.414-1.067 2.332-1.411a8.373 8.373 0 0 1 2.96-.516c.926 0 1.73.132 2.413.394.682.262 1.24.62 1.677 1.072.436.452.764.985.982 1.6.218.615.327 1.276.327 1.981v5.616c0 .434.014.891.041 1.37.027.48.077.873.15 1.18h-2.318a7.991 7.991 0 0 1-.218-1.844h-.082a4.956 4.956 0 0 1-1.787 1.6c-.718.38-1.568.57-2.55.57-.509 0-1.04-.068-1.595-.203a4.648 4.648 0 0 1-1.514-.665 3.762 3.762 0 0 1-1.131-1.22c-.3-.507-.45-1.131-.45-1.873 0-.977.263-1.75.79-2.32.528-.57 1.219-1.004 2.073-1.302.855-.299 1.818-.493 2.891-.583a38.615 38.615 0 0 1 3.246-.136v-.353zm-.628 2.198c-.636 0-1.295.027-1.977.081-.682.055-1.3.163-1.855.326-.554.163-1.013.407-1.377.732-.363.326-.545.76-.545 1.303 0 .38.077.696.232.95.154.253.359.46.613.623.255.163.537.276.846.34.309.063.627.094.954.094 1.2 0 2.123-.357 2.768-1.071.646-.715.969-1.615.969-2.7v-.678h-.628zm7.364-3.961c0-.344-.01-.787-.027-1.33a27.172 27.172 0 0 0-.082-1.438h2.427c.036.326.064.701.082 1.126.018.425.027.773.027 1.045H132c.364-.76.895-1.37 1.595-1.832a4.193 4.193 0 0 1 2.36-.692c.4 0 .736.037 1.009.109l-.11 2.36a4.848 4.848 0 0 0-1.172-.135c-.618 0-1.155.113-1.61.339-.454.226-.831.529-1.131.909-.3.38-.523.818-.668 1.316a5.53 5.53 0 0 0-.218 1.56v6.756h-2.564V25.419zm12.409 8.058v2.035h-2.482V15h2.564v9.578h.082c.436-.634 1.045-1.172 1.827-1.615.782-.443 1.709-.665 2.782-.665.963 0 1.84.172 2.632.516.79.344 1.472.823 2.045 1.438a6.46 6.46 0 0 1 1.323 2.157c.309.823.463 1.705.463 2.645s-.154 1.827-.463 2.66a6.549 6.549 0 0 1-1.31 2.17 6.045 6.045 0 0 1-2.045 1.451c-.8.353-1.7.53-2.7.53a5.97 5.97 0 0 1-2.645-.611c-.837-.407-1.51-1-2.018-1.777h-.055zm8.59-4.423c0-.597-.09-1.175-.272-1.736a4.423 4.423 0 0 0-.818-1.492 3.915 3.915 0 0 0-1.35-1.031c-.536-.254-1.16-.38-1.868-.38a4.132 4.132 0 0 0-3.164 1.41 4.75 4.75 0 0 0-.886 1.493 5.006 5.006 0 0 0-.314 1.763c0 .615.105 1.203.314 1.764.209.56.504 1.054.886 1.479.382.425.841.764 1.377 1.017.537.253 1.132.38 1.787.38.709 0 1.332-.131 1.868-.393.536-.263.986-.61 1.35-1.045.364-.434.636-.932.818-1.492.182-.561.273-1.14.273-1.737zm8.81 6.458h-2.564v-12.86h2.564v12.86zM170 24.74h-3.436v6.702c0 .778.145 1.334.436 1.668.29.335.755.502 1.39.502.237 0 .492-.027.765-.081a2.93 2.93 0 0 0 .736-.244l.082 2.089c-.31.108-.65.194-1.023.258-.373.063-.76.095-1.16.095-1.217 0-2.15-.335-2.795-1.004-.645-.67-.968-1.673-.968-3.012V24.74h-2.482v-2.089h2.482v-3.69h2.537v3.69H170v2.09zm-10.264-6.728c0 .47-.168.859-.504 1.166-.337.308-.741.462-1.214.462s-.873-.159-1.2-.475c-.327-.317-.49-.701-.49-1.153 0-.47.163-.864.49-1.18a1.661 1.661 0 0 1 1.2-.475c.473 0 .877.158 1.214.474.336.317.504.71.504 1.18z"/>
    </g>
</svg>
