<?xml version="1.0" encoding="UTF-8"?>
<svg width="196px" height="44px" viewBox="0 0 196 44" version="1.1" xmlns="http://www.w3.org/2000/svg" xmlns:xlink="http://www.w3.org/1999/xlink">
    <!-- Generator: Sketch 46.2 (44496) - http://www.bohemiancoding.com/sketch -->
    <title>logo_black</title>
    <desc>Created with Sketch.</desc>
    <defs>
        <linearGradient x1="89.8301728%" y1="22.630174%" x2="17.3721161%" y2="79.6984738%" id="linearGradient-1">
            <stop stop-color="#00A1FF" offset="0%"></stop>
            <stop stop-color="#007CFF" offset="52.5936346%"></stop>
            <stop stop-color="#1360FF" offset="100%"></stop>
        </linearGradient>
        <path d="M5.61477285,7.48813919 L11.7528402,2.27413591 C15.3224069,-0.758045302 20.5757249,-0.758045302 24.1452916,2.27413591 L30.2833589,7.48813919 C31.8931982,8.8556229 33.0011327,10.7168978 33.4330793,12.779513 L35.6969574,23.5898984 C36.3511435,26.7137435 35.3875456,29.9560062 33.1314065,32.2223262 L24.7294611,40.662186 C21.0176017,44.3907954 14.9728588,44.4173106 11.2281499,40.7214095 C11.2082363,40.7017554 11.1884097,40.682014 11.1686707,40.662186 L2.76672527,32.2223262 C0.510586213,29.9560062 -0.453011727,26.7137435 0.201174438,23.5898984 L2.46505251,12.779513 C2.89699911,10.7168978 4.0049336,8.8556229 5.61477285,7.48813919 Z" id="path-2"></path>
    </defs>
    <g id="Symbols" stroke="none" stroke-width="1" fill="none" fill-rule="evenodd">
        <g id="Footer" transform="translate(-136.000000, -96.000000)">
            <g id="Group-28">
                <g id="logos/ML1" transform="translate(136.000000, 96.000000)">
                    <g id="Group-Copy">
                        <g id="Group-3-Copy-13">
                            <g id="logos/Iso1" transform="translate(0.000000, 0.048548)">
                                <g id="Group-2">
                                    <g id="Group-42-Copy-3">
                                        <g id="Group-7">
                                            <mask id="mask-3" fill="white">
                                                <use xlink:href="#path-2"></use>
                                            </mask>
                                            <use id="Rectangle-2-Copy-45" fill="url(#linearGradient-1)" xlink:href="#path-2"></use>
                                            <path d="M26.0552486,27.7116621 L26.0552486,27.7116621 L26.0552486,29.1118693 C26.0552486,33.596221 22.4042668,37.2315064 17.9005525,37.2315064 C13.3968382,37.2315064 9.74585635,33.596221 9.74585635,29.1118693 L9.74585635,27.7116621 C6.85580198,27.5085735 4.57458564,25.1097807 4.57458564,22.1804719 C4.57458564,19.1179878 7.06793907,16.6353539 10.1436464,16.6353539 L25.6574586,16.6353539 C28.7331659,16.6353539 31.2265193,19.1179878 31.2265193,22.1804719 C31.2265193,25.1097807 28.945303,27.5085735 26.0552486,27.7116621 Z M10.441989,20.7941924 C9.61813877,20.7941924 8.95027624,21.4591836 8.95027624,22.2794918 C8.95027624,23.0998001 9.61813877,23.7647913 10.441989,23.7647913 L25.558011,23.7647913 C26.3818612,23.7647913 27.0497238,23.0998001 27.0497238,22.2794918 C27.0497238,21.4591836 26.3818612,20.7941924 25.558011,20.7941924 L10.441989,20.7941924 Z M15.8121547,26.9334301 C14.9883045,26.9334301 14.320442,27.5984213 14.320442,28.4187296 C14.320442,29.2390378 14.9883045,29.904029 15.8121547,29.904029 L20.1878453,29.904029 C21.0116955,29.904029 21.679558,29.2390378 21.679558,28.4187296 C21.679558,27.5984213 21.0116955,26.9334301 20.1878453,26.9334301 L15.8121547,26.9334301 Z" id="Combined-Shape" fill="#FFFFFF" mask="url(#mask-3)"></path>
                                        </g>
                                    </g>
                                </g>
                            </g>
                        </g>
                        <g id="logos/text_logo" transform="translate(47.000000, 13.000000)" fill="#2B3E51">
                            <path d="M84.454068,4.91617812 L83.3864757,4.91617812 C83.0920922,4.91617812 82.6921068,5.04411562 82.4671602,5.64211562 L78.5707379,14.0809594 L74.7285631,5.65361562 C74.4992767,5.04411562 74.0992913,4.91617812 73.8041845,4.91617812 L72.7365922,4.91617812 C72.5145388,4.91617812 72.3228641,4.99452187 72.1666311,5.14977187 C72.0103981,5.30502187 71.9315583,5.49620937 71.9315583,5.71686562 C71.9315583,5.80527187 71.9431311,5.88505312 71.9727864,5.97202187 L77.0944806,17.2556781 L74.7799175,22.2049906 C74.7567718,22.2754281 74.7444757,22.3552094 74.7444757,22.4421781 C74.7444757,22.6635531 74.8240388,22.8547406 74.9795485,23.0092719 C75.1357816,23.1645219 75.3281796,23.2435844 75.550233,23.2435844 L76.6178252,23.2435844 C76.9122087,23.2435844 77.3121942,23.1156469 77.5371408,22.5176469 L85.2243835,5.95549062 C85.2482524,5.88505312 85.2598252,5.80742812 85.2598252,5.71686562 C85.2598252,5.49620937 85.1809854,5.30502187 85.0247524,5.14977187 C84.8685194,4.99452187 84.6768447,4.91617812 84.454068,4.91617812 L84.454068,4.91617812 Z M62.065733,10.4275531 C62.104068,9.49677188 62.4461893,8.73130312 63.0841408,8.15199062 C63.7495777,7.54824062 64.5719709,7.24205312 65.5274515,7.24205312 C66.5849175,7.24205312 67.4413058,7.54320937 68.0720243,8.13689687 C68.6774272,8.70830312 68.9949563,9.47880312 69.0166553,10.4275531 L62.065733,10.4275531 Z M65.5274515,4.65742812 C64.3708932,4.65742812 63.3372961,4.91833437 62.4541456,5.43224062 C61.5724417,5.94614687 60.8578204,6.65483437 60.3327039,7.54033437 C59.8097573,8.42152187 59.4900583,9.42130312 59.383733,10.5173969 C59.3490146,11.0356156 59.330932,11.4395531 59.330932,11.7198656 C59.330932,12.0001781 59.3490146,12.4041156 59.383733,12.9266469 C59.4900583,14.0687406 59.809034,15.1116469 60.3312573,16.0266156 C60.8563738,16.9466156 61.575335,17.6783031 62.467165,18.2008344 C63.3582718,18.7233656 64.3882524,18.9893031 65.5274515,18.9893031 C66.6912427,18.9893031 67.7089272,18.8146469 68.5515728,18.4718031 C69.3985583,18.1253656 70.0596553,17.6919594 70.5182282,17.1830844 C70.9825874,16.6670219 71.2552718,16.1523969 71.3312184,15.6428031 C71.3536408,15.4013031 71.2726311,15.1828031 71.0968689,15.0088656 C70.9232767,14.8356469 70.7055631,14.7486781 70.448068,14.7486781 L69.6669029,14.7486781 C69.448466,14.7486781 69.2748738,14.7795844 69.1352767,14.8428344 C69.0007427,14.9046469 68.8604223,15.0095844 68.7005728,15.1691469 C68.3374757,15.5630219 67.922301,15.8720844 67.4673447,16.0862719 C67.0167282,16.2968656 66.3635874,16.4046781 65.5274515,16.4046781 C64.5220631,16.4046781 63.6924369,16.0948969 63.0624417,15.4861156 C62.4367864,14.8802094 62.1004515,14.0284906 62.0628398,12.9604281 L70.8386505,12.9604281 C71.0787864,12.9604281 71.2885437,12.8727406 71.4614126,12.7009594 C71.6350049,12.5284594 71.7225243,12.3207406 71.7225243,12.0821156 L71.7225243,11.3834906 C71.7225243,9.32858437 71.1634126,7.67761562 70.0611019,6.47514687 C68.9537282,5.26908437 67.4282864,4.65742812 65.5274515,4.65742812 L65.5274515,4.65742812 Z M98.3819515,16.0424281 L89.736335,16.0424281 L89.736335,1.13699062 C89.736335,0.899084375 89.6488155,0.691365625 89.4745,0.518146875 C89.3009078,0.346365625 89.0911505,0.258678125 88.8517379,0.258678125 L87.7841456,0.258678125 C87.544733,0.258678125 87.3349757,0.346365625 87.1613835,0.518146875 C86.9877913,0.691365625 86.9002718,0.899084375 86.9002718,1.13699062 L86.9002718,17.8522406 C86.9002718,18.0901469 86.9877913,18.2978656 87.1613835,18.4710844 C87.3342524,18.6435844 87.5440097,18.7305531 87.7841456,18.7305531 L98.3819515,18.7305531 C98.6220874,18.7305531 98.8318447,18.6435844 99.0047136,18.4710844 C99.1783058,18.2978656 99.2665485,18.0901469 99.2665485,17.8522406 L99.2665485,16.9207406 C99.2665485,16.6835531 99.1783058,16.4758344 99.0047136,16.3018969 C98.8318447,16.1293969 98.6220874,16.0424281 98.3819515,16.0424281 L98.3819515,16.0424281 Z M148.213051,7.45480312 C147.721929,6.55780312 147.02756,5.85917812 146.149473,5.37833437 C145.275726,4.90036562 144.265997,4.65742812 143.146327,4.65742812 C142.149619,4.65742812 141.293954,4.83352187 140.603201,5.18139687 C140.084594,5.44230312 139.645551,5.75495937 139.291133,6.11433437 L139.291133,5.79449062 C139.291133,5.55658437 139.203614,5.34886562 139.029298,5.17564687 C138.855706,5.00386562 138.645949,4.91617812 138.406536,4.91617812 L137.443099,4.91617812 C137.20441,4.91617812 136.994653,5.00386562 136.82106,5.17564687 C136.647468,5.34814687 136.559226,5.55586562 136.559226,5.79449062 L136.559226,17.8522406 C136.559226,18.0908656 136.646745,18.2993031 136.82106,18.4710844 C136.993929,18.6435844 137.203687,18.7305531 137.443099,18.7305531 L138.406536,18.7305531 C138.646672,18.7305531 138.856429,18.6435844 139.029298,18.4710844 C139.203614,18.2978656 139.291133,18.0901469 139.291133,17.8522406 L139.291133,11.0212406 C139.291133,9.78139687 139.602153,8.83049062 140.216959,8.19583437 C140.829594,7.56333437 141.683813,7.24205312 142.755745,7.24205312 C143.844313,7.24205312 144.702148,7.56261562 145.306104,8.19511562 C145.912954,8.83049062 146.220357,9.78139687 146.220357,11.0212406 L146.220357,17.8522406 C146.220357,18.0901469 146.307876,18.2985844 146.480745,18.4710844 C146.653614,18.6435844 146.863371,18.7305531 147.103507,18.7305531 L148.066944,18.7305531 C148.30708,18.7305531 148.51756,18.6428656 148.689706,18.4710844 C148.863298,18.2993031 148.950818,18.0908656 148.950818,17.8522406 L148.950818,10.6331156 C148.950818,9.41842812 148.702002,8.34892812 148.213051,7.45480312 L148.213051,7.45480312 Z M134.073238,4.91617812 L132.719218,4.91617812 C131.912738,4.91617812 131.245854,5.04411562 130.73665,5.29711562 C130.371383,5.47895937 130.040112,5.73699062 129.748621,6.06689687 L129.748621,5.79449062 C129.748621,5.55586562 129.660379,5.34814687 129.48751,5.17564687 C129.313917,5.00386562 129.104883,4.91617812 128.864748,4.91617812 L127.901311,4.91617812 C127.661175,4.91617812 127.452141,5.00386562 127.279272,5.17564687 C127.106403,5.34814687 127.01816,5.55586562 127.01816,5.79449062 L127.01816,17.8522406 C127.01816,18.0908656 127.10568,18.2993031 127.279272,18.4710844 C127.451417,18.6428656 127.661175,18.7305531 127.901311,18.7305531 L128.864748,18.7305531 C129.104883,18.7305531 129.314641,18.6428656 129.48751,18.4710844 C129.661102,18.2993031 129.748621,18.0908656 129.748621,17.8522406 L129.748621,10.2967406 C129.748621,9.38464687 129.989481,8.68314687 130.463966,8.21164687 C130.939175,7.74014687 131.644393,7.50080312 132.562985,7.50080312 L134.073238,7.50080312 C134.311927,7.50080312 134.521684,7.41383437 134.695277,7.24133437 C134.868146,7.06955312 134.956388,6.86111562 134.956388,6.62249062 L134.956388,5.79449062 C134.956388,5.55586562 134.868146,5.34814687 134.695277,5.17564687 C134.521684,5.00386562 134.311927,4.91617812 134.073238,4.91617812 L134.073238,4.91617812 Z M121.786524,12.7548656 C121.786524,13.8351469 121.412578,14.7220844 120.674087,15.3912406 C119.930534,16.0632719 118.946845,16.4046781 117.749058,16.4046781 C116.982359,16.4046781 116.409505,16.2451156 116.045684,15.9317406 C115.684757,15.6190844 115.508995,15.2827094 115.508995,14.9024906 C115.508995,14.3778031 115.787466,13.9487094 116.361044,13.5929281 C116.961383,13.2198969 117.823558,12.9453344 118.923699,12.7771469 L121.786524,12.3185844 L121.786524,12.7548656 Z M118.920806,4.65742812 C118.032592,4.65742812 117.184883,4.82777187 116.402272,5.16414687 C115.616767,5.50052187 114.978092,5.93752187 114.503607,6.46364687 C114.018995,6.99911562 113.744864,7.55183437 113.68917,8.10742812 C113.667471,8.35036562 113.75499,8.57102187 113.941602,8.74567812 C114.12315,8.91530312 114.335801,9.00155312 114.573044,9.00155312 L115.354209,9.00155312 C115.588558,9.00155312 115.773723,8.97136562 115.91983,8.90955312 C116.071,8.84486562 116.20915,8.72986562 116.332112,8.56670937 C116.664107,8.12180312 117.018524,7.78470937 117.386684,7.56620937 C117.746888,7.35130312 118.263325,7.24205312 118.920806,7.24205312 C119.776471,7.24205312 120.478796,7.45911562 121.006806,7.88749062 C121.531922,8.31227187 121.786524,8.90595937 121.786524,9.70161562 L121.786524,9.88561562 L118.266942,10.4555844 C116.630835,10.7179281 115.299238,11.2303969 114.306146,11.9778969 C113.291354,12.7433656 112.777087,13.8143031 112.777087,15.1612406 C112.777087,15.8843031 112.975995,16.5448344 113.368748,17.1248656 C113.758607,17.7020219 114.322058,18.1627406 115.043189,18.4933656 C115.757811,18.8225531 116.580927,18.9893031 117.48867,18.9893031 C118.410155,18.9893031 119.343937,18.8017094 120.264699,18.4322719 C120.931583,18.1648969 121.440786,17.8234906 121.786524,17.4116469 L121.786524,17.8522406 C121.786524,18.0908656 121.874044,18.2993031 122.048359,18.4710844 C122.221228,18.6435844 122.430985,18.7305531 122.670398,18.7305531 L123.633835,18.7305531 C123.873971,18.7305531 124.083728,18.6435844 124.25732,18.4710844 C124.430913,18.2978656 124.518432,18.0901469 124.518432,17.8522406 L124.518432,9.96036562 C124.518432,8.29358437 123.994039,6.97827187 122.961165,6.04964687 C121.933354,5.12605312 120.574272,4.65742812 118.920806,4.65742812 L118.920806,4.65742812 Z M102.234252,10.4275531 C102.273311,9.49677188 102.615432,8.73130312 103.253383,8.15199062 C103.91882,7.54824062 104.74049,7.24205312 105.695971,7.24205312 C106.75416,7.24205312 107.610549,7.54320937 108.241267,8.13689687 C108.847393,8.70830312 109.164199,9.47880312 109.185175,10.4275531 L102.234252,10.4275531 Z M105.695971,4.65742812 C104.540859,4.65742812 103.506539,4.91833437 102.623388,5.43224062 C101.740961,5.94614687 101.027786,6.65483437 100.501947,7.54033437 C99.979,8.42080312 99.659301,9.42130312 99.5529757,10.5173969 C99.5182573,11.0334594 99.5008981,11.4381156 99.5008981,11.7198656 C99.5008981,12.0023344 99.5182573,12.4062719 99.5529757,12.9266469 C99.659301,14.0687406 99.9782767,15.1116469 100.5005,16.0266156 C101.025617,16.9466156 101.743854,17.6783031 102.636408,18.2008344 C103.527515,18.7233656 104.556772,18.9893031 105.695971,18.9893031 C106.861209,18.9893031 107.87817,18.8146469 108.720092,18.4718031 C109.567801,18.1253656 110.229621,17.6919594 110.687471,17.1830844 C111.151107,16.6677406 111.424515,16.1531156 111.501184,15.6428031 C111.522883,15.4013031 111.441874,15.1828031 111.266112,15.0088656 C111.093243,14.8356469 110.874083,14.7486781 110.617311,14.7486781 L109.836146,14.7486781 C109.617709,14.7486781 109.444117,14.7795844 109.303796,14.8428344 C109.171432,14.9039281 109.026772,15.0117406 108.869816,15.1691469 C108.505995,15.5637406 108.091544,15.8720844 107.637311,16.0855531 C107.185971,16.2968656 106.532107,16.4046781 105.695971,16.4046781 C104.691306,16.4046781 103.86168,16.0948969 103.231684,15.4861156 C102.606029,14.8794906 102.269694,14.0277719 102.232083,12.9604281 L111.007893,12.9604281 C111.248029,12.9604281 111.457786,12.8734594 111.630655,12.7009594 C111.804248,12.5284594 111.89249,12.3200219 111.89249,12.0821156 L111.89249,11.3834906 C111.89249,9.32858437 111.332655,7.67761562 110.230345,6.47514687 C109.122971,5.26908437 107.597529,4.65742812 105.695971,4.65742812 L105.695971,4.65742812 Z M28.7967816,12.8928656 C28.696966,13.9515844 28.3411019,14.8126469 27.7385922,15.4523344 C27.1433155,16.0841156 26.2811408,16.4046781 25.1752136,16.4046781 C24.0700097,16.4046781 23.2071117,16.0841156 22.6125583,15.4523344 C22.0093252,14.8126469 21.6534612,13.9515844 21.5536456,12.8935844 C21.5370097,12.7117406 21.5283301,12.3602719 21.5283301,11.8492406 C21.5283301,11.3209594 21.5370097,10.9508031 21.5536456,10.7538656 C21.6534612,9.69514687 22.0093252,8.83480312 22.6125583,8.19439687 C23.207835,7.56261562 24.0700097,7.24205312 25.1752136,7.24205312 C26.2804175,7.24205312 27.1433155,7.56261562 27.7385922,8.19439687 C28.3411019,8.83408437 28.696966,9.69514687 28.7967816,10.7517094 C28.8307767,11.1585219 28.8481359,11.5279594 28.8481359,11.8492406 C28.8481359,12.1705219 28.8307767,12.5219906 28.7967816,12.8928656 L28.7967816,12.8928656 Z M29.6502767,6.27389687 C28.5443495,5.20152187 27.0384369,4.65742812 25.1752136,4.65742812 C23.3127136,4.65742812 21.8075243,5.20152187 20.7001505,6.27389687 C19.5971165,7.34411562 18.9656748,8.79742812 18.8239078,10.5914281 C18.8058252,10.7890844 18.7971456,11.2009281 18.7971456,11.8492406 C18.7971456,12.4630531 18.8058252,12.8569281 18.8239078,13.0560219 C18.9837573,14.8507406 19.6195388,16.3026156 20.7131699,17.3721156 C21.8104175,18.4452094 23.3119903,18.9893031 25.1752136,18.9893031 C27.0391602,18.9893031 28.540733,18.4452094 29.6372573,17.3721156 C30.732335,16.3018969 31.3673932,14.8500219 31.5265194,13.0560219 C31.5619612,12.6736469 31.5793204,12.2682719 31.5793204,11.8492406 C31.5793204,11.3957094 31.5619612,10.9723656 31.5265194,10.5928656 C31.3847524,8.79670937 30.7533107,7.34339687 29.6502767,6.27389687 L29.6502767,6.27389687 Z M15.673932,0.258678125 L14.6844563,0.258678125 C14.1267913,0.258678125 13.6870243,0.570615625 13.3781748,1.18370937 L8.27890291,10.9924906 L3.18107767,1.18586562 C2.87150485,0.570615625 2.43173786,0.258678125 1.87334951,0.258678125 L0.883873786,0.258678125 C0.644461165,0.258678125 0.434703883,0.346365625 0.261834951,0.518146875 C0.0882427184,0.690646875 0,0.899084375 0,1.13699062 L0,17.8522406 C0,18.0901469 0.0882427184,18.2985844 0.26111165,18.4710844 C0.434703883,18.6428656 0.643737864,18.7305531 0.883873786,18.7305531 L1.95218932,18.7305531 C2.19160194,18.7305531 2.40135922,18.6428656 2.57422816,18.4710844 C2.74782039,18.2993031 2.83533981,18.0908656 2.83533981,17.8522406 L2.83533981,6.32420937 L6.5552767,13.4556469 C6.7042767,13.7524906 6.87280583,13.9810531 7.05652427,14.1348656 C7.25470874,14.3001781 7.49918447,14.3835531 7.78416505,14.3835531 L8.77364078,14.3835531 C9.05862136,14.3835531 9.30382039,14.3001781 9.50200485,14.1348656 C9.685,13.9810531 9.85352913,13.7524906 10.0018058,13.4585219 L13.722466,6.32492812 L13.722466,17.8522406 C13.722466,18.0901469 13.8107087,18.2985844 13.9835777,18.4710844 C14.1571699,18.6435844 14.3669272,18.7305531 14.6063398,18.7305531 L15.673932,18.7305531 C15.914068,18.7305531 16.1238252,18.6428656 16.2966942,18.4710844 C16.4702864,18.2985844 16.5578058,18.0901469 16.5578058,17.8522406 L16.5578058,1.13699062 C16.5578058,0.899084375 16.4702864,0.690646875 16.2966942,0.518146875 C16.1231019,0.346365625 15.914068,0.258678125 15.673932,0.258678125 L15.673932,0.258678125 Z M52.685966,11.1103656 L58.7956893,6.37380312 C59.0300388,6.18333437 59.1486602,5.96267812 59.1486602,5.71686562 C59.1486602,5.49620937 59.0698204,5.30502187 58.9135874,5.14977187 C58.7573544,4.99452187 58.5656796,4.91617812 58.3429029,4.91617812 L57.0409612,4.91617812 C56.8029951,4.91617812 56.5975777,4.96289687 56.4319417,5.05561562 C56.2880049,5.13611562 56.1151359,5.24895937 55.9147816,5.39342812 L51.128699,9.07630312 L51.128699,0.878240625 C51.128699,0.640334375 51.0411796,0.431896875 50.8675874,0.259396875 C50.6947184,0.087615625 50.4849612,-7.1875e-05 50.2448252,-7.1875e-05 L49.2813883,-7.1875e-05 C49.0419757,-7.1875e-05 48.8322184,0.087615625 48.6593495,0.259396875 C48.4857573,0.431896875 48.3975146,0.639615625 48.3975146,0.878240625 L48.3975146,17.8522406 C48.3975146,18.0908656 48.4857573,18.2993031 48.6586262,18.4710844 C48.8322184,18.6428656 49.0419757,18.7305531 49.2813883,18.7305531 L50.2448252,18.7305531 C50.4849612,18.7305531 50.6947184,18.6428656 50.8675874,18.4710844 C51.0411796,18.2985844 51.128699,18.0901469 51.128699,17.8522406 L51.128699,13.2694906 L56.5592427,18.2475531 C56.9382524,18.5688344 57.3375146,18.7305531 57.7440097,18.7305531 L58.967835,18.7305531 C59.1906117,18.7305531 59.3822864,18.6522094 59.5385194,18.4969594 C59.6947524,18.3417094 59.7735922,18.1512406 59.7735922,17.9298656 C59.7735922,17.7257406 59.6679903,17.5173031 59.4546165,17.3067094 L52.685966,11.1103656 Z M43.1224806,5.37833437 C42.248733,4.90036562 41.2382816,4.65742812 40.1186117,4.65742812 C39.1226262,4.65742812 38.2669612,4.83352187 37.5762087,5.18139687 C37.0583252,5.44230312 36.6185583,5.75495937 36.2641408,6.11433437 L36.2641408,5.79449062 C36.2641408,5.55658437 36.1758981,5.34814687 36.0023058,5.17564687 C35.8287136,5.00386562 35.6189563,4.91617812 35.3795437,4.91617812 L34.4161068,4.91617812 C34.1766942,4.91617812 33.9669369,5.00386562 33.7933447,5.17564687 C33.6204757,5.34814687 33.532233,5.55658437 33.532233,5.79449062 L33.532233,17.8522406 C33.532233,18.0901469 33.6204757,18.2985844 33.7933447,18.4710844 C33.9669369,18.6428656 34.1759709,18.7305531 34.4161068,18.7305531 L35.3795437,18.7305531 C35.6196796,18.7305531 35.8287136,18.6435844 36.0023058,18.4710844 C36.1758981,18.2985844 36.2641408,18.0901469 36.2641408,17.8522406 L36.2641408,11.0212406 C36.2641408,9.78139687 36.5751602,8.83120937 37.1892427,8.19583437 C37.8018786,7.56333437 38.6568204,7.24205312 39.7280291,7.24205312 C40.8165971,7.24205312 41.6751553,7.56261562 42.2791117,8.19511562 C42.8852379,8.83049062 43.1926408,9.78139687 43.1926408,11.0212406 L43.1926408,17.8522406 C43.1926408,18.0901469 43.2808835,18.2985844 43.4537524,18.4710844 C43.6273447,18.6428656 43.8363786,18.7305531 44.0765146,18.7305531 L45.0399515,18.7305531 C45.2800874,18.7305531 45.4898447,18.6428656 45.6634369,18.4710844 C45.8363058,18.2985844 45.9238252,18.0901469 45.9238252,17.8522406 L45.9238252,10.6331156 C45.9238252,9.41842812 45.675733,8.34892812 45.1860583,7.45480312 C44.6942136,6.55780312 43.9998447,5.85917812 43.1224806,5.37833437 L43.1224806,5.37833437 Z" id="Fill-1"></path>
                        </g>
                    </g>
                </g>
            </g>
        </g>
    </g>
</svg>